<svg width="100" height="34" viewBox="0 0 100 34" fill="none" xmlns="http://www.w3.org/2000/svg">
<g filter="url(#filter0_d_929_11218)">
<rect width="100" height="32" rx="6" fill="#141414" shape-rendering="crispEdges"/>
<path d="M23.9016 18.3281C23.9133 18.3431 23.9282 18.3551 23.9453 18.3635C23.9623 18.3718 23.981 18.3761 24 18.3761C24.019 18.3761 24.0377 18.3718 24.0547 18.3635C24.0718 18.3551 24.0867 18.3431 24.0984 18.3281L25.8484 16.1141C25.9125 16.0328 25.8547 15.9125 25.75 15.9125H24.5922V10.625C24.5922 10.5562 24.5359 10.5 24.4672 10.5H23.5297C23.4609 10.5 23.4047 10.5562 23.4047 10.625V15.9109H22.25C22.1453 15.9109 22.0875 16.0313 22.1516 16.1125L23.9016 18.3281ZM29.7188 17.7812H28.7812C28.7125 17.7812 28.6562 17.8375 28.6562 17.9062V20.3125H19.3438V17.9062C19.3438 17.8375 19.2875 17.7812 19.2188 17.7812H18.2812C18.2125 17.7812 18.1562 17.8375 18.1562 17.9062V21C18.1562 21.2766 18.3797 21.5 18.6562 21.5H29.3438C29.6203 21.5 29.8438 21.2766 29.8438 21V17.9062C29.8438 17.8375 29.7875 17.7812 29.7188 17.7812Z" fill="white" fill-opacity="0.85"/>
<path d="M41.2578 21V11.1357H47.3691V12.2432H42.4883V15.4082H47.1162V16.502H42.4883V19.8926H47.3691V21H41.2578ZM48.8594 21L51.3818 17.3154L48.832 13.6309H50.2334L51.9834 16.3721H52.0928L53.8223 13.6309H55.1553L52.6533 17.2676L55.1895 21H53.7949L52.0518 18.2178H51.9424L50.1924 21H48.8594ZM56.7891 23.4609V13.6309H57.9785V14.8066H58.0879C58.5391 13.9863 59.3594 13.501 60.3848 13.501C62.251 13.501 63.4746 15.0117 63.4746 17.3086V17.3223C63.4746 19.6328 62.2578 21.1299 60.3848 21.1299C59.373 21.1299 58.4912 20.624 58.0879 19.8379H57.9785V23.4609H56.7891ZM60.1113 20.0771C61.458 20.0771 62.2578 19.0381 62.2578 17.3223V17.3086C62.2578 15.5928 61.458 14.5537 60.1113 14.5537C58.7715 14.5537 57.9512 15.6064 57.9512 17.3086V17.3223C57.9512 19.0244 58.7715 20.0771 60.1113 20.0771ZM68.3623 21.1299C66.2637 21.1299 64.9648 19.6807 64.9648 17.3223V17.3086C64.9648 14.9434 66.2637 13.501 68.3623 13.501C70.4609 13.501 71.7598 14.9434 71.7598 17.3086V17.3223C71.7598 19.6807 70.4609 21.1299 68.3623 21.1299ZM68.3623 20.0771C69.7568 20.0771 70.543 19.0586 70.543 17.3223V17.3086C70.543 15.5654 69.7568 14.5537 68.3623 14.5537C66.9678 14.5537 66.1816 15.5654 66.1816 17.3086V17.3223C66.1816 19.0586 66.9678 20.0771 68.3623 20.0771ZM73.6055 21V13.6309H74.7949V14.7246H74.9043C75.1846 13.9521 75.875 13.501 76.873 13.501C77.0986 13.501 77.3516 13.5283 77.4678 13.5488V14.7041C77.2217 14.6631 76.9961 14.6357 76.7363 14.6357C75.6016 14.6357 74.7949 15.3535 74.7949 16.4336V21H73.6055ZM81.6924 21.0547C80.1748 21.0547 79.5391 20.4941 79.5391 19.0859V14.6152H78.377V13.6309H79.5391V11.7236H80.7695V13.6309H82.3828V14.6152H80.7695V18.7852C80.7695 19.6533 81.0703 20.002 81.8359 20.002C82.0479 20.002 82.1641 19.9951 82.3828 19.9746V20.9863C82.1504 21.0273 81.9248 21.0547 81.6924 21.0547Z" fill="white" fill-opacity="0.85"/>
<rect x="0.5" y="0.5" width="99" height="31" rx="5.5" stroke="#424242" stroke-dasharray="3 3" shape-rendering="crispEdges"/>
</g>
<defs>
<filter id="filter0_d_929_11218" x="0" y="0" width="100" height="34" filterUnits="userSpaceOnUse" color-interpolation-filters="sRGB">
<feFlood flood-opacity="0" result="BackgroundImageFix"/>
<feColorMatrix in="SourceAlpha" type="matrix" values="0 0 0 0 0 0 0 0 0 0 0 0 0 0 0 0 0 0 127 0" result="hardAlpha"/>
<feOffset dy="2"/>
<feComposite in2="hardAlpha" operator="out"/>
<feColorMatrix type="matrix" values="0 0 0 0 1 0 0 0 0 1 0 0 0 0 1 0 0 0 0.04 0"/>
<feBlend mode="normal" in2="BackgroundImageFix" result="effect1_dropShadow_929_11218"/>
<feBlend mode="normal" in="SourceGraphic" in2="effect1_dropShadow_929_11218" result="shape"/>
</filter>
</defs>
</svg>
