<svg width="371" height="36" viewBox="0 0 371 36" fill="none" xmlns="http://www.w3.org/2000/svg">
<rect y="10.5" width="15" height="15" fill="#15417E"/>
<path d="M36.8301 22L34.5273 13.5449H35.6289L37.3105 20.418H37.3809L39.2734 13.5449H40.3398L42.2324 20.418H42.3027L43.9844 13.5449H45.0859L42.7832 22H41.7871L39.8418 15.3262H39.7715L37.8262 22H36.8301ZM45.373 22L48.4902 13.5449H49.5332L52.6504 22H51.543L50.6934 19.5801H47.3301L46.4805 22H45.373ZM48.9648 14.9102L47.6406 18.6836H50.3828L49.0586 14.9102H48.9648ZM54.1328 22V13.5449H55.1875V21.0508H59.2656V22H54.1328ZM60.9531 22V13.5449H62.0078V21.0508H66.0859V22H60.9531ZM67.7734 22V13.5449H73.0117V14.4941H68.8281V17.207H72.7949V18.1445H68.8281V21.0508H73.0117V22H67.7734ZM77.1191 22V14.4941H74.3945V13.5449H80.8984V14.4941H78.1738V22H77.1191Z" fill="white" fill-opacity="0.65"/>
<rect x="130" y="10.5" width="15" height="15" fill="#3C89E8"/>
<path d="M165.078 22V13.5449H167.979C170.486 13.5449 171.969 15.1094 171.969 17.7637V17.7754C171.969 20.4355 170.492 22 167.979 22H165.078ZM166.133 21.0508H167.908C169.795 21.0508 170.891 19.8438 170.891 17.7871V17.7754C170.891 15.7129 169.783 14.4941 167.908 14.4941H166.133V21.0508ZM173.797 22V13.5449H179.035V14.4941H174.852V17.207H178.818V18.1445H174.852V21.0508H179.035V22H173.797ZM180.389 22L183.271 17.752V17.7285L180.424 13.5449H181.695L183.957 16.9492H183.992L186.277 13.5449H187.479L184.555 17.7812V17.8047L187.414 22H186.148L183.898 18.625H183.863L181.584 22H180.389Z" fill="white" fill-opacity="0.65"/>
<rect x="260" y="10.5" width="15" height="15" fill="#B7DCFA"/>
<path d="M298.482 22.1992C296.186 22.1992 294.75 20.5 294.75 17.7812V17.7695C294.75 15.0449 296.18 13.3457 298.477 13.3457C300.258 13.3457 301.646 14.4648 301.898 16.0879L301.893 16.0996H300.832L300.826 16.0879C300.545 15.0039 299.643 14.3184 298.477 14.3184C296.854 14.3184 295.834 15.6543 295.834 17.7695V17.7812C295.834 19.8965 296.854 21.2266 298.482 21.2266C299.66 21.2266 300.557 20.623 300.82 19.6504L300.832 19.6387H301.898V19.6504C301.617 21.1973 300.281 22.1992 298.482 22.1992ZM303.668 22V13.5449H308.906V14.4941H304.723V17.207H308.689V18.1445H304.723V21.0508H308.906V22H303.668ZM310.26 22L313.143 17.752V17.7285L310.295 13.5449H311.566L313.828 16.9492H313.863L316.148 13.5449H317.35L314.426 17.7812V17.8047L317.285 22H316.02L313.77 18.625H313.734L311.455 22H310.26Z" fill="white" fill-opacity="0.65"/>
</svg>
