<svg width="46" height="17" viewBox="0 0 46 17" fill="none" xmlns="http://www.w3.org/2000/svg">
<path d="M4.23828 16L0.498047 5.24805H3.55469L5.78125 13.334H5.95703L8.16406 5.24805H11.1621L7.44141 16H4.23828ZM14.541 3.59766C13.6621 3.59766 12.9297 2.89453 12.9297 2.01562C12.9297 1.12695 13.6621 0.423828 14.541 0.423828C15.4199 0.423828 16.1426 1.12695 16.1426 2.01562C16.1426 2.89453 15.4199 3.59766 14.541 3.59766ZM13.1055 16V5.24805H15.957V16H13.1055ZM23.5547 16.2246C20.2832 16.2246 18.3008 14.0859 18.3008 10.6387V10.6289C18.3008 7.21094 20.3027 5.01367 23.4375 5.01367C26.5723 5.01367 28.5254 7.16211 28.5254 10.4141V11.3027H21.123C21.1523 13.0703 22.0996 14.0957 23.6133 14.0957C24.8633 14.0957 25.5566 13.4316 25.752 13.0215L25.7812 12.9629H28.4375L28.418 13.0605C28.0859 14.4082 26.6992 16.2246 23.5547 16.2246ZM23.4863 7.15234C22.2461 7.15234 21.3281 7.99219 21.1523 9.51562H25.791C25.6152 7.95312 24.7266 7.15234 23.4863 7.15234ZM32.7051 16L29.834 5.24805H32.7148L34.3164 13.0312H34.4922L36.377 5.24805H39.0918L40.9863 13.0312H41.1621L42.7637 5.24805H45.5859L42.7246 16H39.6973L37.7734 8.5H37.5977L35.6934 16H32.7051Z" fill="white"/>
</svg>
