<svg width="14" height="14" viewBox="0 0 14 14" fill="none" xmlns="http://www.w3.org/2000/svg">
<path d="M12.1742 10.3264L7.35348 3.68047C7.17848 3.43984 6.82028 3.43984 6.64665 3.68047L1.82458 10.3264C1.81271 10.3427 1.8056 10.362 1.80404 10.3822C1.80248 10.4023 1.80652 10.4225 1.81572 10.4405C1.82492 10.4584 1.83893 10.4735 1.85618 10.484C1.87342 10.4945 1.89325 10.5001 1.91344 10.5H2.93884C3.00856 10.5 3.07419 10.4658 3.1152 10.4098L6.99938 5.05586L10.8836 10.4098C10.9246 10.4658 10.9902 10.5 11.0599 10.5H12.0853C12.1742 10.5 12.2261 10.3988 12.1742 10.3264V10.3264Z" fill="white"/>
</svg>
